<svg id="Layer_1" data-name="Layer 1" xmlns="http://www.w3.org/2000/svg" viewBox="0 0 1118 179.44"><title>logo_black</title><path d="M1037-.48c2.26,0.26,4.54.46,6.79,0.8,33.44,5,56.08,23.52,68,55.07,5,13.22,6.38,27,5.47,41.11-0.92,14.34-4.42,28-11.54,40.5-12.4,21.82-31.05,35.22-55.61,40-20.07,3.94-39.67,1.94-58.2-7-21.51-10.42-35.52-27.52-42.3-50.25-7.58-25.41-6.47-50.55,5.56-74.47,12.16-24.18,32.07-38.6,58.53-44.05a78.84,78.84,0,0,1,11.63-1.49,7.45,7.45,0,0,0,1.1-.22H1037ZM973.89,61.36c-0.2,7.48-.23,15.55.06,23.61a155.38,155.38,0,0,0,4.86,35.21c3.57,13.15,9.07,25.34,18.52,35.37,14.06,14.92,31.39,21.19,51.73,18.6,12.81-1.63,24.07-7,34.1-15.07a13.53,13.53,0,0,0,5.3-10.79c0.15-7.83.36-15.65,0.48-23.48,0.32-21.28-.74-42.45-5.33-63.32-2.19-10-5.3-19.61-10.83-28.3-11.1-17.43-26.74-27.68-47.54-28.93-17.61-1.06-33.05,5-46.72,15.89a13,13,0,0,0-4.84,11.42C974.2,41.3,973.81,51,973.89,61.36Z"/><path d="M680.61-.48c2.31,0.27,4.63.47,6.93,0.82,33.26,5,55.82,23.43,67.75,54.76,5.08,13.34,6.49,27.3,5.56,41.52s-4.42,27.86-11.52,40.35c-12.45,21.91-31.19,35.32-55.88,40.1-19.94,3.86-39.4,1.88-57.8-7-21.57-10.4-35.64-27.52-42.44-50.3-7.58-25.42-6.5-50.56,5.54-74.47C611.25,20.52,631.75,6,659,.93A76.85,76.85,0,0,1,669-.26a10.16,10.16,0,0,0,1.26-.22h10.31Zm52.05,123c0.07-8.45-.07-17.95-0.75-27.43A222.38,222.38,0,0,0,727,60.29c-2.4-10.23-5.73-20.09-11.7-28.86-11.58-17-27.49-26.6-48.22-27.26-16.46-.53-30.91,5.32-43.9,15.11a14,14,0,0,0-5.84,12.82c0.4,5.58.25,11.16,0.26,16.75,0,11.79-.4,23.58,0,35.37a156.79,156.79,0,0,0,4.88,35.93c3.59,13.25,9.14,25.52,18.71,35.59,14.09,14.83,31.41,21,51.68,18.38,13-1.68,24.41-7.22,34.52-15.5a12.41,12.41,0,0,0,4.73-9.7C732.34,140.48,732.48,132,732.67,122.54Z"/><path d="M-0.55,2.67c0.57,0,1.14,0,1.71,0h63c0.43,0,.86,0,1.29,0,0.59,0,.69.34,0.7,0.83s-0.39.56-.77,0.56H61c-4.2,0-8.4,0-12.6,0-1,0-1.37.21-1.31,1.25,0.08,1.52,0,3.05,0,4.58q0,81.48,0,163c0,2-.44,2,1.9,1.81,5.29-.33,10.59-0.19,15.89-0.24,7.49-.07,15-0.14,22.41-1.29,16.76-2.6,29-11.48,36.42-26.64a215.39,215.39,0,0,0,10.72-24.31,6.71,6.71,0,0,1,.32-0.66,1.49,1.49,0,0,1,.19,1.14c0,17.37,0,34.75,0,52.12,0,1.29-.36,1.57-1.59,1.57q-66.09,0-132.17,0A2,2,0,0,1-.55,176v-0.86c5.58,0,11.17,0,16.75,0,2.16,0,1.87.31,1.87-1.91q0-83.48,0-167c0-.33,0-0.67,0-1a0.73,0.73,0,0,0-.89-0.92c-5.92,0-11.83.06-17.75,0.08V2.67Z"/><path d="M410.78,4.12a2.47,2.47,0,0,1,2.15-1.45c17.33,0,34.64-.9,52-0.93a306.9,306.9,0,0,1,37.87,1.85c8.46,1,17,2,25,5.09A81.78,81.78,0,0,1,544.22,17c12.11,8.11,18.55,19.46,19.15,34,0.43,10.4-1.52,20.23-7.58,29-4.85,7-11.46,11.78-19,15.42a93.6,93.6,0,0,1-32.85,8.71c-12.77,1.13-25.46.32-38.12-1.37-1.84-.25-3.7-0.43-5.54-0.66-0.72-.09-1.1.11-1,0.9a8.26,8.26,0,0,1,0,.86q0,34.51,0,69c0,1.44.34,1.83,1.8,1.82,9.59-.07,19.19,0,28.79,0H491c0.64,0,.61.44,0.62,0.89s0,0.77-.59.75c-0.38,0-.76,0-1.15,0H413.22c-0.24,0-.48,0-0.72,0a0.74,0.74,0,0,1-1-.84c0-.81.56-0.62,1-0.62h15.9a11.18,11.18,0,0,1,1.14,0c0.73,0.08,1.08-.19,1-1a8.39,8.39,0,0,1,0-1q0-83.42,0-166.84c0-2.19.28-1.9-1.88-1.91-5.44,0-10.88,0-16.33,0h-1.55ZM459.4,52.34q0,23.13,0,46.26c0,0.79-.23,1.57,1.13,1.57,7.4,0,14.8.21,22.2,0.23a76.69,76.69,0,0,0,18.91-1.8c15.06-3.74,25.91-12.46,31.37-27.19a53.39,53.39,0,0,0,2-30.72c-3.07-13.65-11-23.57-23.59-29.75a66.7,66.7,0,0,0-20.95-6c-9.8-1.3-19.63-.88-29.46-0.5-1.3.05-1.62,0.49-1.62,1.77Q459.44,29.28,459.4,52.34Z"/><path d="M917.85,122.41v1.14q0,25.63,0,51.27c0,1.31-.4,1.55-1.61,1.55q-42.89-.06-85.78-0.05l-46.11,0c-0.43,0-.86,0-1.29,0s-0.5-.34-0.52-0.7a0.44,0.44,0,0,1,.52-0.5h1c5.16,0,10.31,0,15.47,0,1.07,0,1.46-.2,1.46-1.38q0-84,0-168c0-1.09-.24-1.47-1.4-1.45-5.3.06-10.6,0-15.9,0-0.56,0-1.32.27-1.3-.8s0.73-.81,1.31-0.81H847.9c0.54,0,1.21-.19,1.2.76s-0.71.6-1.14,0.6c-5.35,0-10.69,0-16,0-0.33,0-.67,0-1,0a0.66,0.66,0,0,0-.83.82c0,0.33,0,.67,0,1q0,84.14,0,168.27c0,1.94,0,1.9,2,1.71,9.5-.94,19-1.84,28.49-2.8,6.41-.65,12.81-1.42,19.13-2.65,9.28-1.82,16.29-7.14,21.85-14.58,4.7-6.29,7.86-13.38,10.82-20.58,1.58-3.83,3.07-7.7,4.61-11.55,0.19-.47.41-0.92,0.61-1.39Z"/><path d="M329.25,176.2H263.09a0.57,0.57,0,0,1-.56-0.67,0.53,0.53,0,0,1,.59-0.63h20.57a1.23,1.23,0,0,0-.15-1c-5.64-14.68-11.16-29.41-17-44-1.27-3.16-2.86-4.26-6.28-4.27q-20.12-.06-40.24-0.08c-9,0-18,.06-26.93.1a6.49,6.49,0,0,0-6.58,4.49c-5.71,14.3-11,28.73-16.52,43.12-0.13.35-.23,0.71-0.4,1.22,0.59,0,1.09.08,1.58,0.08,6.06,0,12.13,0,18.19,0,0.49,0,1.18-.29,1.2.72s-0.48,1-1.17,1c-13.75,0-27.5,0-41.27-.13,1.5-.62,2.9-1.59,4.69-1.15a18.32,18.32,0,0,0,6,.46,11.6,11.6,0,0,0,8.47-4.76,36.3,36.3,0,0,0,4.94-9.8c18.69-50.3,38.07-100.34,57.2-150.47,0.63-1.64,1-3.37,1.64-5,0.35-1,.12-1.22-0.89-1.21-6.4,0-12.79,0-19.19,0-0.48,0-1.21.32-1.25-.67,0-.83.07-1.3,1.13-1.3,9.07,0,18.14-.16,27.21.1,2,0.06,4,.15,6,0.16a3.6,3.6,0,0,1,2.87,1.35,18.74,18.74,0,0,1,3.2,5.71q19.21,50.13,38.4,100.27c6.41,16.83,13.3,33.48,19.33,50.46,0.92,2.6,1.73,5.25,2.77,7.81,2.19,5.41,5.48,7.39,11.31,6.83C324.46,174.6,327,174.56,329.25,176.2Zm-140-53.82h72.82c1.76,0,1.77,0,1.14-1.62q-18.15-47-36.31-94a2.08,2.08,0,0,0-.75-1.3Z"/><path d="M1055.25,88.53a7.65,7.65,0,0,1-1.63,4.63,4.67,4.67,0,0,1-5,1.7c-1.84-.46-2.6-1.93-2.92-3.68a8.25,8.25,0,0,1,.57-4.75c1.05-2.51,3.34-3.85,5.64-3.36C1054,83.53,1055.28,85.45,1055.25,88.53Zm-8.85.32c0,3.43,1,5.15,2.9,5.44,2.05,0.33,4-1.08,4.77-3.45a8.41,8.41,0,0,0,.29-4,3.41,3.41,0,0,0-2.4-3.08,3.79,3.79,0,0,0-4.09,1.35A6.4,6.4,0,0,0,1046.4,88.85Z"/><path d="M1063.5,92.92q0.47-4.16.95-8.32c0-.24,0-0.48.07-0.71s0-.78.5-0.66,0.2,0.47.17,0.73c-0.3,2.65-.59,5.3-0.92,8a11,11,0,0,1-.61,3.41L1058.34,85l-0.29,0q-0.38,3.21-.75,6.42c-0.1.9-.19,1.8-0.3,2.7,0,0.28.12,0.79-.43,0.69-0.39-.07-0.22-0.46-0.19-0.72q0.36-3.48.75-7c0.12-1,.24-2.08.39-3.12,0-.29-0.12-0.75.34-0.82s0.51,0.36.65,0.64l4,7.76c0.23,0.46.49,0.91,0.73,1.36Z"/><path d="M985.79,85.08q-0.48,4.16-1,8.33c0,0.28,0,.57-0.07.86s0,0.65-.45.57-0.24-.44-0.22-0.7q0.43-3.84.86-7.68c0.09-.81.15-1.62,0.28-2.42,0-.29-0.06-0.75.38-0.83s0.51,0.36.65,0.64c1.35,2.63,2.68,5.27,4,7.9,0.21,0.42.45,0.82,0.9,1.62,0.29-2.51.54-4.61,0.78-6.71,0.11-.95.2-1.9,0.31-2.84,0-.26,0-0.63.41-0.59s0.27,0.33.24,0.55q-0.59,5.26-1.19,10.52c0,0.21,0,.54-0.3.55a0.77,0.77,0,0,1-.64-0.67q-2-3.88-4-7.77c-0.23-.46-0.48-0.91-0.72-1.37Z"/><path d="M1024.45,92.9c0.34-2.92.67-5.85,1-8.77,0-.32-0.19-0.94.37-0.9s0.27,0.61.23,0.93q-0.52,4.9-1.1,9.79c0,0.3.12,0.76-.27,0.87s-0.58-.4-0.74-0.71c-1.37-2.66-2.73-5.34-4.1-8a1.77,1.77,0,0,0-.87-1.17c-0.32,2.82-.64,5.59-1,8.36,0,0.33,0,.67-0.1,1s-0.08.63-.49,0.53-0.22-.37-0.19-0.6q0.57-5.11,1.16-10.22c0-.3,0-0.74.4-0.81s0.5,0.38.64,0.65c1.35,2.62,2.68,5.25,4,7.88,0.21,0.42.44,0.82,0.66,1.23Z"/><path d="M1016,94.76c-0.82.37-1-.24-1.22-0.67-0.62-1.12-1.28-2.23-1.83-3.39a1.56,1.56,0,0,0-1.86-1.14c-0.92.21-.58,1.08-0.7,1.66-0.2,1-.24,2-0.35,3,0,0.3.06,0.75-.48,0.66s-0.29-.41-0.26-0.68c0.37-3.36.76-6.72,1.11-10.08a0.93,0.93,0,0,1,1.2-1c0.47,0,1,0,1.43,0,1.9,0,2.77.57,3.08,1.91a3.36,3.36,0,0,1-1.8,4c-1.21.47-1,.94-0.51,1.79C1014.59,92.07,1015.28,93.42,1016,94.76Zm-4.1-5.84c2.45,0,3.8-1.35,3.54-3.36-0.17-1.26-1-1.69-2.76-1.84-1.32-.12-1.64.44-1.63,1.58a9,9,0,0,1-.25,2.26C1010.5,88.72,1010.87,89.15,1011.91,88.92Z"/><path d="M1026,95c1.76-3.87,3.39-7.47,5-11.07a0.83,0.83,0,0,1,.73-0.76c0.53,0,.53.48,0.61,0.83,0.77,3.29,1.54,6.59,2.28,9.89,0.07,0.3.41,0.82-.13,1s-0.51-.45-0.61-0.77c-0.27-.91-0.08-2.22-0.8-2.65s-1.95-.08-2.93-0.22c-1.38-.2-2,0.4-2.5,1.65C1027.38,93.57,1027.35,94.64,1026,95Zm2.74-4.36c1.31,0,2.4,0,3.48,0,0.74,0,.9-0.27.75-0.92-0.41-1.74-.8-3.49-1.29-5.65Z"/><path d="M1065.11,94.73l5-10.89a0.76,0.76,0,0,1,.78-0.68c0.44,0.06.42,0.45,0.49,0.76q1.17,5.07,2.34,10.15c0.06,0.27.42,0.68-.15,0.79s-0.48-.34-0.56-0.65a1.38,1.38,0,0,0,0-.14c-0.34-.92-0.06-2.41-0.91-2.69a13.51,13.51,0,0,0-4.1-.14c-0.7,0-.69.68-0.95,1.1-0.53.86-.58,2-1.52,2.62Zm7-4.18-1.45-6.5-2.91,6.5h4.36Z"/><path d="M1007.67,88.83a6.92,6.92,0,0,1-3.47.38c-0.85,0-1.37.16-1.35,1.15,0,1.23-.85,2.75-0.12,3.59s2.34,0.19,3.56.29a2.25,2.25,0,0,1,1.23.18c0,0.57-.38.48-0.68,0.48-1.24,0-2.48-.07-3.71,0s-1.58-.24-1.4-1.48c0.43-3.11.75-6.24,1.11-9.36,0.05-.47,0-1,0.72-1,1.75,0,3.5,0,5.48,0-0.74,1-1.55.6-2.22,0.61-3.14,0-3.14,0-3.57,3.13-0.24,1.72-.24,1.7,1.49,1.73A8.81,8.81,0,0,1,1007.67,88.83Z"/><path d="M994.1,83.42a50.8,50.8,0,0,1,8-.27,2.26,2.26,0,0,1-2.27.6c-1.27-.16-1.63.39-1.73,1.55-0.25,2.85-.6,5.68-0.93,8.52,0,0.38.13,1.07-.45,1-0.76-.06-0.32-0.75-0.28-1.14,0.3-2.84.61-5.68,1-8.51,0.16-1.15-.19-1.54-1.33-1.43A2.49,2.49,0,0,1,994.1,83.42Z"/><path d="M1035,83.23h7.7a1.32,1.32,0,0,1-1.67.52c-1.49-.18-2.07.27-2.14,1.88-0.12,2.66-.53,5.3-0.86,7.95-0.06.45,0.12,1.28-.56,1.21s-0.23-.81-0.19-1.23c0.3-2.89.6-5.78,1-8.65,0.13-.92-0.09-1.19-1-1.15a5.42,5.42,0,0,1-2.29-.13Z"/><path d="M1077.76,94.9c-2.69,0-2.71,0-2.44-2.72s0.59-5.48.9-8.23c0-.32,0-0.78.44-0.77,0.63,0,.36.57,0.32,0.88-0.3,2.74-.6,5.48-0.94,8.22-0.24,1.92-.27,1.91,1.72,1.92,0.71,0,1.43,0,2.14,0,0.22,0,.51,0,0.51.34s-0.29.33-.51,0.33C1079.19,94.91,1078.48,94.9,1077.76,94.9Z"/><path d="M982.79,84.06c-0.38,3.41-.76,6.77-1.13,10.13,0,0.32,0,.76-0.51.66s-0.29-.52-0.25-0.81q0.54-5,1.11-9.94c0-.35,0-0.91.47-0.89S982.71,83.79,982.79,84.06Z"/><path d="M1042.65,93.17c0.33-3,.64-6,1-8.93,0-.37-0.09-1.06.48-1s0.29,0.71.26,1.06q-0.5,4.82-1.09,9.63c0,0.34.22,1-.51,0.91-0.56-.1-0.19-0.62-0.19-1a5.34,5.34,0,0,1,.08-0.71h0Z"/></svg>